# xmcd
# 
# Track frame offsets:
#     150
#     13970
#     28575
#     54087
#     67040
#     90470
#     113497
#     134715
#     155417
# 
# Disc length: 2281
# 
# Revision: 7
# Processed by: cddbd v1.5.2PL0 Copyright (c) Steve Scherf et al.
# Submitted via: fre:ac v1.0.31
# 
DISCID=7008e709
DTITLE=Charlie Daniels - Nightrider
DYEAR=1975
DGENRE=Rock/Pop
TTITLE0=Texas
TTITLE1=Willie Jones
TTITLE2=Franklin Limestone
TTITLE3=Evil
TTITLE4=Everything Is Kinda All Right
TTITLE5=Funky Junky
TTITLE6=Birmingham Blues
TTITLE7=Damn Good Cowboy
TTITLE8=Tomorrow's Gonna Be Another Day
EXTD=YEAR: 1975
EXTT0=
EXTT1=
EXTT2=
EXTT3=
EXTT4=
EXTT5=
EXTT6=
EXTT7=
EXTT8=
PLAYORDER=
